<svg id="Layer_1" data-name="Layer 1" xmlns="http://www.w3.org/2000/svg" xmlns:xlink="http://www.w3.org/1999/xlink" viewBox="0 0 600 600"><defs><style>.cls-1{fill:none;}.cls-2{clip-path:url(#clip-path);}</style><clipPath id="clip-path"><rect class="cls-1" width="600" height="600"/></clipPath></defs><g class="cls-2"><path d="M241.36,305.12c0,14.47,12.07,28.35,21,35.59s14.08,8.33,19.43,6.54,12.89-1.09,12.4,12.19c-.1,14.47-1,25.77-14.07,32.61s-30.43,17.65-31.72,24.78-7.73,12.59-18.73,12.39-17.84,15.66-10.41,21.51,7.73-2.18,7.93-8.52,11.9-9.12,20.82-4.17,18.83,7.34,28.35,3.37c0,0-16.26-1.48-13.48-13.67s18.23-15.37,35.18-15.27c16.76.1,35.09,3.87,35.09,15.07s-7.83,14.87-13.28,14.87c16.65,5.35,24.29-2.09,28.55-5s20.42-2.38,21.41,4.36,1,13.58,7,10,3.37-21.8-6.94-23.09-14.77,3.76-20.72-8.92-20.22-16.95-32.51-27-18.44-19-15.56-33.8,7.13-12.39,12.29-11.69,15.86-.7,24.38-12.09,16.36-21.71,16.65-33.61-13.18-45.1-56.4-45.1S241.36,290.65,241.36,305.12Zm56.73-44.34c40.87,0,52.9,31.65,53.3,40.31S340,315.43,334.94,317s-7.8-.06-.68-2.85,11.44-13.72,2.5-21.41S314,293.51,314,306.44s14.46,15.43,14.46,23.11S323,341.16,314.1,341.16s-13.43-7-13.43-22.08S299.19,297,298.09,297s-1.81,4.78-2,22.09-3.36,21.8-14.12,22.08-14.06-7.05-14.06-12.41,13.61-11.89,14-24.82-11.45-18.67-22.32-11.5-4.55,18.11,1.82,20.27,7.46,6.15-1.08,4.1-15.09-5.41-15.09-15.26S257.23,260.78,298.09,260.78Z"/><path d="M483.17,693l-50.68-5.65V671.8c0-3-3.44-4.84-12.18-6.46-.6-18-7.19-25.1-6.19-59.29,1.08-36.91,5-104,7.53-136.18s-2.27-45,5.73-61,24.73-35.6,25-45.75,2.61-25.68,12.27-29.55,14.62-16.24,15.24-30.39-2.17-9.51-3.56-.62-9.51,11.91-16.86-.31-20-33.4-18.79-42.21,6.27-14.93,4.64-16.24-4.33,1-6.34,7.42-5.8,4.87-7.42-.93-4.94-9.89-13.29-26.06-17.64-25.36-20.5-30.93-1.62-13.29-1.55-27.83.62-21.81,4.1-30.78,5.8-20.18,6.26-42.45,2.25-35.33,4.95-46,4.18-21.81,5.88-17.33,5.1,20.88,11.29,35.26,14.46,35.34,15.08,57.15,3.55,36.73,1.16,38.58-12.53,7.89-11.29,9.67,8.35-2.94,12.52-3,6.11.31,7.74,9,6.11,29.92,12,42.61,5.41,18.09,5.34,29.3,6.42,18,6.8,24.42,2.5,6.24,2.41-.08-4.19-16.14-4.34-25.5-.16-21.18-6.65-40.83-9-39.35-13.22-40.82-6.65-2.17-3.87-7.89,5.41-35.65-3-60.23-20.18-46.79-23.5-63S413.51-.74,411.66,1.19s1.24,15.16-5.34,28.54-8.27,29.22-8.89,51-6.65,28.84-14.54,61S366.5,183.6,363.1,182.44s-23.74-4.79-41.83-.54-20.49,5-23,4.95-19.25-6.27-32.17-6.34-25.2.38-30.15,1.62-9.51-1.55-12-10.67-7.42-16.08-11.67-33.56-13-41.14-13.77-56.14-.23-30.38-6-45.54-7-18.87-6.88-24.67S187.39-.51,184.86,0,175.51,11.71,170.64,34s-16.32,37.35-22.27,60.93S140.1,140,142,147.41s3.71,13.53.77,15.16-5.64,2.78-10,23.81-11.14,36.65-11.14,51-6.26,24.16-5.8,34.39,1.86,4,2.63-.76,6.42-21.34,6.81-27.83-1.7-11.53,2.16-20.19,5.8-13.14,6.81-22.26,8.43-34.1,12.6-34,8.51,0,11,1.39,5.34-1.39,1.08-3.4-10.13-4.95-8.73-12.14.69-18.86,2.47-36.49,5.57-22,9.9-37.51S172.5,53.62,174,45s2.79-17.32,4.49-17.32,4.64,16.08,7.73,24.9.7,43.22,5.18,64.79,9.59,29.54,9.44,36.19,1.85,36.34-4.1,43.38S179,219.43,175.2,231.25s-13.45,26.19-14.84,25.3-6.65-14-8.36-13.18.7,3.17,2.48,8.66,1.93,11-1.78,18.56-.77,10.67-11.21,24.43S126.41,312.58,123,307.94s-5.34-17.48-6.26-17.09-3.1,25,5.79,34.87,18,9.28,20,25,3.79,23.05,11.22,32.94S173.5,403,173,435.06s-1.24,44.3,4,58.38,7,39.59,7.73,79c.57,32.15-.25,77.15-.58,92.67l-.41.07c-9.29,1.65-12.91,3.5-12.91,6.6h0v15.51L120.21,693a1.13,1.13,0,0,0-.06,2.24L170.89,704v13.7a2.26,2.26,0,0,0,2,2.25c4.32.45,8.68.87,13,1.27l27.18,57.5a2.25,2.25,0,0,0,2,1.29H387a2.25,2.25,0,0,0,2-1.29l27.19-57.53c4.74-.39,9.48-.79,14.23-1.24a2.25,2.25,0,0,0,2.05-2.25V704l50.75-8.75a1.13,1.13,0,0,0-.07-2.24ZM181.82,430.51c-6.36-10.38-7.7-31.48-12.61-57.61s-4.8-43.77-5.59-50-2.23-4.24-2.45-.44.22,14.06-4,21.66-6,1.22-6.92-8.94,3.68-17.86,2.45-19.2-4.91,4.13-6.7,2.46-2.68-10.61,2.46-24.57,17.42-22.77,25.63-48.23S186.29,214.8,200.92,202s45.1-17.53,67-15.08,27.35,9.6,29.25,9.6,3-.55,17.88-7.36,42.41-1.46,61.95,2.9S414.2,217,418.75,235.57s8.7,25.79,19.09,40.87,12.39,27.46,12.5,35.61-.78,8.93-3.79,5.59-3.58-2-3.35,1.22,5.36,21.44-1.12,27.25-5.58-25.91-6.7-28.25-4.58,14.29-5.8,29.81-3.8,28.58-6.15,47.11-4.68,25.68-10.38,38.64-13.51,17.86-19.31,19.38S376,467.8,370,477.29s-8.15,42.32-7.25,74-3.46,54.4-11.82,80.53c-5.54,17.35-16.93,34.73-29.77,44.3q-22,.39-43.77,0c-5.34-4.35-10.48-10.91-17.79-20.53-15.94-21-21.9-51.25-27.37-79.74s-.78-51.67-.67-77.24-18.65-40.19-30.59-46.22S188.19,440.9,181.82,430.51ZM428,715.59c-88.54,8.09-173.5,8.09-252.56,0V704.73L183,706a2.38,2.38,0,0,0,.46,0,2.59,2.59,0,0,0,2.31-1.37,17.36,17.36,0,0,0,0-17.41A2.66,2.66,0,0,0,183.1,686l-7.69.85V674.32c80.12,8.74,165.06,8.73,252.56,0v12.5l-7.69-.85a2.66,2.66,0,0,0-2.62,1.34,17.39,17.39,0,0,0,0,17.41,2.6,2.6,0,0,0,2.31,1.37,2.38,2.38,0,0,0,.46,0l7.57-1.3Z"/><path d="M360,466.34a32.63,32.63,0,0,1-14.74,3.53c-4.71-.18-4.71.13-3.33,5.78s-.93,57.8-1.24,67.18-.19,9.56,1.24,7.2,5.65-40.91,7.51-59.54,6.34-19.56,11.18-22.41S364.06,464.19,360,466.34Z"/><path d="M254.17,475.65c1.38-5.65,1.39-6-3.33-5.78a32.63,32.63,0,0,1-14.74-3.53c-4.06-2.15-5.46-1.12-.62,1.74s9.32,3.79,11.18,22.41,6.08,57.18,7.51,59.54,1.55,2.17,1.24-7.2S252.79,481.3,254.17,475.65Z"/><path d="M297.54,452.8c-12.41.11-28.05,10.62-29,23.87s4.29,24,13.74,46.05,9.13,44.79,18.46,44.79,20.51-31,20.19-55.31,5.58-16.82,5.58-33.85S309.85,452.7,297.54,452.8Z"/><path d="M356.77,243.49c-.44,1.54-.44,1.54.54,2.62,2.84,2.69,5.82,5.35,8.76,8,.74.66,2.61,2.34,3.33,3,8.89,8,22.27,4.16,31.3-1.29.18-.1,0-.4-.15-.32-6.45,2.17-13.79,3.85-20.44,2.43-4.57-1.58-4.83-3-2.08-3.27a8.62,8.62,0,0,0,1.07,0c6.24,0,10.25-2.48,12.9-8.22a26.06,26.06,0,0,0,2.44-7.5,38.55,38.55,0,0,1,5.51,8.27c2.83,5.45,5.77,12.62,12.49,14a8.87,8.87,0,0,0,2.82,0,.58.58,0,0,0,0-1.13c-3.19-.56-5.13-3.06-6.36-5.91-2.6-6.52-3.31-13.52-7.44-19.56a29,29,0,0,0-18.56-12.92C369.73,219.28,360,232.29,356.77,243.49Zm23.89-12.23a21.62,21.62,0,0,1,6.4,2A3,3,0,0,1,388.7,236v0c-.1,4.17.38,9.56-2,13.08-2.2,3.24-8,4.33-12.69,3.75a8.57,8.57,0,0,1-4.73-2.24v0a98.89,98.89,0,0,0-7.52-6.47c1.88-1.94,3.76-3.9,5.64-5.66C371.36,235,375.38,231,380.66,231.26Z"/><path d="M347.89,257.46c.43,3.48,18.5,29.46,22.93,44.29s6.92,22.84,17.31,42.58,15.59,39.91,15,54.31S392.9,437.36,390,441.08s-.91,5.24,2.33,1.66,5-8.2,10.83-23.55,3.05-23.17,4.91-38.62,2.62-26.89.67-35,.43-8.82,3.1-7.53,2.67.62,2.95-14.88-6.1-10.11-6.77-24.6S417.69,268,416.83,267s-6.29.9-13.78,7.15-12.44,11.58-21.26,11.82-15.93-10-20.93-19.4-7.58-10.11-9-10.59-3.38-4.67-7.2-11.63-.43-13.31,4.72-15,4.49,3.34,6,3.25,4.1-7.44.29-7.63,5.63-8.49,10.87-11.3,2.81-8.49.38-12.54-5.15-6.77-7.82-5.06.1,6.39-1.52,14.78-8,8.59-15.59,10.07-10.64,10-4.49,18.4S347.46,254,347.89,257.46Z"/><path d="M420,296.84c1.89-.11,3-7.7,2.32-15.69s-1.66-12.86-2.51-6.24-4.25,8.32-2.17,13.8S417.67,297,420,296.84Z"/><path d="M180.93,261.17a8.87,8.87,0,0,0,2.82,0c6.72-1.42,9.65-8.59,12.49-14a38.55,38.55,0,0,1,5.51-8.27,25.76,25.76,0,0,0,2.44,7.5c2.65,5.74,6.65,8.22,12.9,8.22a8.58,8.58,0,0,0,1.07,0c2.75.25,2.49,1.69-2.08,3.27-6.65,1.42-14-.26-20.44-2.43a.18.18,0,0,0-.15.32c9,5.45,22.41,9.25,31.3,1.29.72-.63,2.59-2.31,3.32-3,2.95-2.64,5.92-5.3,8.76-8,1-1.08,1-1.08.55-2.62-3.19-11.2-13-24.21-26.18-21.84a29,29,0,0,0-18.55,12.92c-4.13,6-4.84,13-7.44,19.56-1.23,2.85-3.17,5.35-6.36,5.91a.58.58,0,0,0-.43.69A.6.6,0,0,0,180.93,261.17Zm28.2-28a21.56,21.56,0,0,1,6.39-2c5.29-.25,9.31,3.74,13.28,7.24,1.88,1.76,3.76,3.72,5.64,5.66a97,97,0,0,0-7.52,6.47l0,0a8.54,8.54,0,0,1-4.72,2.24c-4.69.58-10.49-.51-12.7-3.75-2.37-3.52-1.9-8.91-2-13.08v0A2.92,2.92,0,0,1,209.13,233.22Z"/><path d="M203.81,442.74c3.24,3.58,5.2,2.05,2.34-1.66S193.61,413,193,398.64s4.62-34.57,15-54.31,12.88-27.75,17.31-42.58,22.51-40.81,22.94-44.29,4.24-9.73,10.39-18.17,3.1-16.93-4.48-18.4-14-1.67-15.59-10.07,1.14-13.06-1.53-14.78-5.39,1-7.82,5.06-4.86,9.72.38,12.54,14.69,11.11,10.88,11.3-1.2,7.53.28,7.63.81-4.91,6-3.25,8.54,8,4.72,15-5.81,11.15-7.2,11.63-3.95,1.15-9,10.59-12.11,19.64-20.93,19.4-13.78-5.58-21.27-11.82-12.92-8.25-13.78-7.15,9.44,17.11,8.77,31.61-7.05,9.1-6.77,24.6.29,16.16,3,14.88,5.05-.57,3.1,7.53-1.19,19.55.67,35-1,23.27,4.91,38.62S200.57,439.17,203.81,442.74Z"/><path d="M173.84,281.15c-.71,8,.43,15.58,2.31,15.69,2.37.14.29-2.65,2.37-8.13s-1.33-7.19-2.18-13.8S174.55,273.16,173.84,281.15Z"/></g></svg>