<?xml version="1.0" encoding="utf-8"?>
<!-- Generator: Adobe Illustrator 26.0.0, SVG Export Plug-In . SVG Version: 6.00 Build 0)  -->
<svg version="1.1" id="Layer_1" xmlns="http://www.w3.org/2000/svg" xmlns:xlink="http://www.w3.org/1999/xlink" x="0px" y="0px"
	 viewBox="0 0 1080 1080" style="enable-background:new 0 0 1080 1080;" xml:space="preserve">
<style type="text/css">
	.st0{fill:#EC008C;}
	.st1{fill:#FFF200;}
	.st2{fill:#00AEEF;}
</style>
<g>
	<g>
		<path class="st0" d="M432.73,885.73c19.15,0,18.88,13.9,16.77,20.79c-9.57,31.3-56.63,35.85-61.12,50.57
			c-3,9.81-3.27,24.06-3.48,24.76c-0.43,1.4-3.01,1.05-3.83,1.05h-15.53c-2.92,0-7.1,2.22,6.29-41.57
			c17.64-57.69,23.07-55.59,25.05-55.59H432.73z M429.43,910.26c2.46-8.06-3.72-10.74-10.73-10.74c-8.41,0-15.69,1.28-23.79,28.14
			c-0.86,2.8-1.41,5.37,1.98,5.37C402.97,933.03,426.86,918.66,429.43,910.26z"/>
		<path class="st0" d="M498.83,885.73c21.72,0,23.57,11.91,20.54,21.84c-5.71,18.68-24.98,24.41-25.98,27.68
			c-1,3.27,15.35,18.57,6.92,46.13c-0.39,1.28-0.93,1.52-3.38,1.52h-13.2c-2.1,0-5.83,0.35-5.26-1.52c4.03-13.2,1.94-36.9-4.83-36.9
			c-3.5,0-13.49,4.79-15.49,11.33c-2.71,8.88-3.28,24.87-3.53,25.69c-0.61,1.99-3.35,1.4-4.52,1.4h-13.55
			c-2.92,0-7.1,2.22,6.29-41.57c17.64-57.69,23.07-55.59,25.05-55.59H498.83z M499.83,909.56c2.25-7.36-3.82-10.04-10.13-10.04
			c-10.63,0-16.48,3.85-22.54,24.06c-0.75,2.45-2.06,7.12,1.44,7.12C472.58,930.69,496.55,920.3,499.83,909.56z"/>
		<path class="st1" d="M513.61,982.89c-2.92,0-7.1,2.22,6.29-41.57c17.64-57.69,23.07-55.59,25.05-55.59h12.61
			c1.52,0,4.54-0.35,3.87,1.87c-0.36,1.17-12.51,20.67-19.4,43.21c-9.14,29.9-9.19,49.17-9.69,50.8c-0.36,1.17-1.09,1.29-2.14,1.29
			h-2.34H513.61z"/>
		<path class="st2" d="M594.55,982.89c-8.06,0,1.4-7.24-5.54-44.14c-0.55-3.15-4.83-22.77-8.57-22.77c-2.92,0-5.99,12.73-6.71,15.07
			c-10.07,32.93-8.92,44.84-10.74,50.8c-0.46,1.52-2.54,1.05-3.59,1.05h-10.86c-2.92,0-7.1,2.22,6.29-41.57
			c17.64-57.69,23.07-55.59,25.05-55.59h9.23c4.44,0,10.46,9.34,19.94,49.75c0.17,0.58,0.29,2.1,1.34,2.1
			c1.17,0,2.47-5.02,2.97-6.66c6.68-21.84,6.65-41.22,7.47-43.91c0.5-1.63,2.96-1.28,5.18-1.28h8.88c2.57,0,8.7-2.1-8.94,55.59
			c-13.39,43.79-16.21,41.57-19.13,41.57H594.55z"/>
		<path class="st2" d="M648.27,982.89c-2.22,0-8.79,4.67,1.57-29.2c7.96-26.04,18.17-42.62,19.49-46.95c1.07-3.5,2.3-5.61-0.62-5.61
			c-8.29,0-27,13.43-28.98,13.43c-1.05,0-1.78,0.47-0.78-2.8c1.11-3.62,8.69-18.1,11.44-21.37c1.85-2.22,18.9-6.42,34.67-6.42
			c18.8,0,33.97,5.02,32.29,10.51c-1.57,5.14-10.69,16.23-11.97,16.23c-1.99,0-3.81-9.69-12.22-9.69c-7.12,0-15.11,22.3-18.4,33.05
			c-9.18,30.01-7.25,44.73-7.89,46.83c-0.79,2.57-4.81,1.99-6.33,1.99H648.27z"/>
	</g>
	<g>
		<g>
			<path d="M302.09,805.45h21.32c16.11,0,29.38,12.66,29.38,28.92s-13.35,28.92-29.38,28.92h-21.32V805.45z M317.12,850.55h3.38
				c8.97,0,16.65-4.91,16.65-16.18c0-10.36-6.83-16.19-16.49-16.19h-3.53V850.55z"/>
			<path d="M422.37,833.3c0,18.72-13.42,31.91-31.99,31.91c-18.56,0-31.99-13.19-31.99-31.91c0-17.49,15.34-29.76,31.99-29.76
				C407.03,803.53,422.37,815.81,422.37,833.3z M374.04,833.37c0,9.97,7.36,17.26,16.34,17.26c8.97,0,16.34-7.29,16.34-17.26
				c0-7.98-7.36-15.26-16.34-15.26C381.41,818.11,374.04,825.4,374.04,833.37z"/>
			<path d="M430.88,863.29v-57.84h21.48c10.28,0,17.18,3.99,17.18,15.03c0,5.22-1.69,9.43-6.37,11.81v0.15
				c8.28,1.07,11.81,6.67,11.81,14.73c0,12.12-10.36,16.11-20.94,16.11H430.88z M445.92,828.16h1.69c3.99,0,8.13-0.69,8.13-5.6
				c0-5.29-4.68-5.6-8.74-5.6h-1.07V828.16z M445.92,851.78h1.92c4.45,0,11.97,0.23,11.97-6.14c0-6.98-7.44-6.29-12.35-6.29h-1.53
				V851.78z"/>
			<path d="M499.38,818.18v9.67h16.95v12.73h-16.95v9.97h17.87v12.73h-32.91v-57.84h32.91v12.73H499.38z"/>
			<path d="M576.17,863.29h-18.72l-14.19-22.25h-0.15v22.25h-15.03v-57.84h22.47c11.43,0,20.1,5.45,20.1,17.8
				c0,7.98-4.45,14.88-12.66,16.34L576.17,863.29z M543.11,831.38h1.46c4.91,0,10.43-0.92,10.43-7.21s-5.52-7.21-10.43-7.21h-1.46
				V831.38z"/>
			<path d="M588.14,805.45h14.8l11.74,30.91l12.43-30.91h14.96l8.74,57.84h-15.03L631.55,830h-0.15l-13.88,33.29h-5.98L598.26,830
				h-0.15l-4.83,33.29h-14.96L588.14,805.45z"/>
			<path d="M673.44,853.24l-3.99,10.05h-15.95l22.24-57.84h16.42l21.78,57.84H697.9l-3.76-10.05H673.44z M683.94,823.32h-0.15
				l-6.21,18.41h12.5L683.94,823.32z"/>
			<path d="M720.15,805.45h15.03l27.54,35.36h0.15v-35.36h15.03v57.84h-15.03l-27.54-35.44h-0.15v35.44h-15.03V805.45z"/>
		</g>
	</g>
	<g>
		<g>
			<path d="M488.16,366.62c0,12.79,10.67,25.06,18.56,31.46c7.89,6.4,12.44,7.36,17.17,5.78c4.73-1.58,11.4-0.97,10.96,10.77
				c-0.09,12.79-0.87,22.78-12.43,28.83c-11.57,6.05-26.9,15.6-28.04,21.91c-1.14,6.31-6.83,11.13-16.56,10.95
				c-9.73-0.18-15.77,13.84-9.2,19.01c6.57,5.17,6.83-1.93,7.01-7.54s10.52-8.06,18.4-3.68c7.89,4.38,16.65,6.48,25.06,2.98
				c0,0-14.37-1.31-11.92-12.09c2.45-10.78,16.12-13.58,31.11-13.49c14.81,0.09,31.02,3.42,31.02,13.32
				c0,9.9-6.92,13.14-11.74,13.14c14.72,4.73,21.47-1.84,25.24-4.38s18.05-2.1,18.93,3.86c0.88,5.96,0.88,12,6.22,8.85
				c5.35-3.15,2.98-19.28-6.13-20.42c-9.11-1.14-13.06,3.33-18.31-7.89s-17.88-14.98-28.74-23.83
				c-10.87-8.85-16.3-16.82-13.76-29.88c2.54-13.06,6.31-10.95,10.87-10.34c4.56,0.61,14.02-0.61,21.56-10.69
				s14.46-19.19,14.72-29.71s-11.65-39.87-49.86-39.87C500.07,323.69,488.16,353.83,488.16,366.62z M538.31,327.42
				c36.12,0,46.77,27.98,47.12,35.63s-10.12,12.68-14.54,14.09c-4.43,1.41-6.9-0.05-0.6-2.52c6.29-2.47,10.12-12.13,2.21-18.92
				c-7.9-6.79-20.13,0.65-20.13,12.08c0,11.42,12.78,13.64,12.78,20.43s-4.83,10.27-12.68,10.27s-11.88-6.19-11.88-19.53
				s-1.31-19.53-2.28-19.53s-1.6,4.23-1.75,19.53s-2.97,19.27-12.48,19.53c-9.41,0.25-12.43-6.24-12.43-10.97
				s12.03-10.52,12.38-21.94c0.35-11.42-10.12-16.51-19.73-10.17c-9.61,6.34-4.03,16,1.61,17.92s6.59,5.44-0.96,3.62
				c-7.55-1.81-13.34-4.78-13.34-13.49S502.19,327.42,538.31,327.42z"/>
			<path d="M481.06,707.41l-34.2,7.46c-0.45,0.1-0.77,0.49-0.79,0.94c-0.01,0.46,0.28,0.87,0.72,0.99l34.1,9.79
				c0.32,0.09,0.65,0.14,0.97,0.14c1.37,0,2.64-0.8,3.18-2.11c2.08-5.04,2.06-10.15-0.05-15.19
				C484.34,707.9,482.69,707.05,481.06,707.41z"/>
			<circle cx="516.96" cy="717.03" r="9.7"/>
			<path d="M701.93,709.48l-44.8-5v-13.71c0-2.66-3.04-4.28-10.78-5.71c-0.53-15.87-6.35-22.19-5.47-52.41
				c0.95-32.63,4.44-91.98,6.65-120.39c2.22-28.41-2.01-39.81,5.07-53.96s21.86-31.47,22.07-40.45c0.21-8.98,2.31-22.7,10.85-26.12
				c8.54-3.42,12.92-14.35,13.47-26.86c0.55-12.51-1.91-8.41-3.14-0.55s-8.41,10.53-14.9-0.27c-6.49-10.8-17.7-29.53-16.61-37.32
				c1.09-7.79,5.54-13.19,4.1-14.35c-1.44-1.16-3.83,0.89-5.61,6.56s-5.13,4.31-6.56-0.82c-1.44-5.13-4.36-8.75-11.75-23.04
				c-7.39-14.29-15.59-22.42-18.12-27.34c-2.53-4.92-1.44-11.76-1.37-24.61s0.55-19.28,3.62-27.21c3.08-7.93,5.13-17.84,5.54-37.53
				c0.41-19.69,1.98-31.24,4.37-40.67c2.39-9.43,3.69-19.28,5.2-15.31c1.5,3.96,4.51,18.46,9.98,31.17
				c5.47,12.71,12.78,31.24,13.33,50.52c0.55,19.28,3.14,32.47,1.03,34.11c-2.12,1.64-11.07,6.97-9.98,8.54
				c1.09,1.57,7.38-2.6,11.07-2.67c3.69-0.07,5.4,0.27,6.84,7.93c1.44,7.66,5.4,26.45,10.6,37.66c5.2,11.21,4.78,16,4.72,25.91
				s5.67,15.89,6.02,21.58c0.34,5.69,2.21,5.52,2.13-0.07s-3.7-14.27-3.84-22.54s-0.14-18.73-5.88-36.09s-7.93-34.79-11.69-36.09
				s-5.88-1.91-3.42-6.97c2.46-5.06,4.78-31.51-2.67-53.25c-7.45-21.74-17.84-41.36-20.78-55.71c-2.94-14.35-10.87-30.21-12.51-28.5
				c-1.64,1.71,1.09,13.4-4.72,25.22c-5.81,11.83-7.31,25.84-7.86,45.11c-0.55,19.28-5.88,25.5-12.85,53.93
				c-6.97,28.44-14.49,36.98-17.5,35.96c-3.01-1.03-20.99-4.24-36.98-0.48c-16,3.76-18.11,4.44-20.3,4.37s-17.02-5.54-28.44-5.61
				c-11.42-0.07-22.28,0.34-26.66,1.44c-4.37,1.09-8.41-1.37-10.6-9.43c-2.19-8.07-6.56-14.22-10.32-29.67s-11.48-36.37-12.17-49.63
				c-0.68-13.26-0.21-26.86-5.33-40.26c-5.13-13.4-6.22-16.68-6.08-21.81c0.14-5.13,1.55-10.66-0.69-10.19
				c-2.24,0.48-8.26,10.32-12.57,30.01s-14.42,33.02-19.69,53.86c-5.26,20.85-7.31,39.85-5.61,46.41s3.28,11.96,0.68,13.4
				c-2.6,1.44-4.99,2.46-8.82,21.05s-9.84,32.4-9.84,45.12c0,12.71-5.54,21.36-5.13,30.4c0.41,9.04,1.64,3.57,2.32-0.67
				c0.68-4.24,5.67-18.87,6.02-24.61c0.34-5.74-1.5-10.19,1.91-17.84s5.13-11.62,6.02-19.69c0.89-8.07,7.45-30.15,11.14-30.08
				c3.69,0.07,7.52,0,9.71,1.23c2.19,1.23,4.72-1.23,0.96-3.01s-8.95-4.37-7.72-10.73c1.23-6.36,0.62-16.68,2.19-32.26
				c1.57-15.58,4.92-19.48,8.75-33.15s8.75-22.08,10.05-29.73s2.46-15.31,3.96-15.31c1.5,0,4.1,14.22,6.84,22.01
				c2.73,7.79,0.62,38.21,4.58,57.28c3.96,19.07,8.48,26.11,8.34,31.99s1.64,32.13-3.62,38.35c-5.26,6.22-15.65,19.92-19,30.36
				c-3.35,10.45-11.89,23.16-13.12,22.37s-5.88-12.41-7.38-11.65s0.62,2.8,2.19,7.66c1.57,4.85,1.71,9.71-1.57,16.41
				c-3.28,6.7-0.68,9.43-9.91,21.6c-9.23,12.17-13.33,15.52-16.34,11.42c-3.01-4.1-4.72-15.45-5.54-15.11
				c-0.82,0.34-2.73,22.08,5.13,30.83c7.86,8.75,15.93,8.2,17.64,22.15c1.71,13.94,3.35,20.37,9.91,29.12s17.5,17.09,17.09,45.39
				c-0.41,28.3-1.09,39.17,3.55,51.61c4.65,12.44,6.22,35,6.84,69.86c0.5,28.42-0.22,68.2-0.51,81.93
				c-0.12,0.02-0.25,0.04-0.36,0.06c-8.22,1.46-11.42,3.09-11.42,5.83h0v13.71l-44.8,5c-0.5,0.06-0.87,0.47-0.89,0.96
				c-0.01,0.5,0.34,0.93,0.83,1.02l44.86,7.73v12.12c0,1.02,0.77,1.88,1.79,1.99c3.82,0.4,7.67,0.76,11.53,1.12l24.03,50.83
				c0.33,0.7,1.03,1.15,1.81,1.15h47.38h57.11h47.38c0.77,0,1.48-0.45,1.81-1.15l24.04-50.85c4.18-0.35,8.37-0.71,12.58-1.1
				c1.03-0.09,1.82-0.96,1.82-1.99v-12.12l44.86-7.73c0.49-0.08,0.84-0.52,0.83-1.02C702.8,709.95,702.42,709.54,701.93,709.48z
				 M435.53,477.47c-5.63-9.18-6.81-27.83-11.15-50.93c-4.34-23.1-4.24-38.69-4.94-44.22s-1.97-3.75-2.17-0.39
				c-0.2,3.36,0.2,12.44-3.55,19.15s-5.33,1.09-6.12-7.9c-0.79-8.98,3.26-15.79,2.17-16.98c-1.09-1.18-4.34,3.65-5.92,2.17
				c-1.58-1.48-2.37-9.38,2.17-21.71c4.54-12.34,15.4-20.14,22.66-42.64c7.26-22.5,10.8-27.24,23.73-38.59s39.88-15.5,59.22-13.32
				c19.35,2.17,24.18,8.49,25.86,8.49s2.66-0.49,15.81-6.51c13.14-6.02,37.49-1.28,54.76,2.57c17.27,3.85,32.89,22.06,36.91,38.49
				s7.7,22.8,16.88,36.12c9.18,13.32,10.96,24.28,11.05,31.49c0.1,7.21-0.69,7.9-3.36,4.94c-2.66-2.96-3.16-1.78-2.96,1.08
				c0.2,2.86,4.74,18.95-0.99,24.08c-5.72,5.13-4.94-22.9-5.92-24.97c-0.99-2.07-4.05,12.63-5.13,26.35
				c-1.09,13.72-3.36,25.27-5.43,41.65c-2.07,16.38-4.15,22.7-9.18,34.15c-5.03,11.45-11.94,15.79-17.08,17.14
				c-5.13,1.34-15.69,13.26-21.02,21.65s-7.21,37.41-6.42,65.42c0.79,28.01-3.06,48.09-10.44,71.19
				c-4.9,15.34-14.97,30.71-26.32,39.16c-12.99,0.24-25.9,0.24-38.69,0.01c-4.72-3.85-9.27-9.65-15.72-18.15
				c-14.1-18.56-19.36-45.3-24.2-70.49c-4.84-25.19-0.69-45.68-0.59-68.28s-16.48-35.53-27.04-40.86
				C441.85,491.49,441.16,486.65,435.53,477.47z M653.13,729.48c-78.27,7.15-153.37,7.16-223.27,0.02v-9.62l6.69,1.15
				c0.14,0.02,0.27,0.04,0.41,0.04c0.85,0,1.64-0.45,2.04-1.21c2.74-5.11,2.73-10.28-0.03-15.39c-0.44-0.82-1.37-1.3-2.31-1.19
				l-6.8,0.76v-11.03c70.83,7.72,145.91,7.72,223.27-0.02v11.05l-6.8-0.76c-0.94-0.1-1.87,0.37-2.31,1.19
				c-2.76,5.11-2.77,10.28-0.03,15.39c0.41,0.75,1.19,1.21,2.04,1.21c0.14,0,0.27-0.01,0.41-0.04l6.69-1.15V729.48z"/>
			<path d="M636.14,714.87l-34.2-7.46c-1.63-0.36-3.28,0.49-3.93,2.02c-2.11,5.04-2.13,10.15-0.05,15.19v0
				c0.54,1.31,1.81,2.11,3.18,2.11c0.32,0,0.65-0.04,0.97-0.14l34.1-9.79c0.44-0.13,0.74-0.54,0.72-0.99
				C636.91,715.35,636.58,714.96,636.14,714.87z"/>
			<path d="M566.03,707.33c-5.35,0-9.7,4.35-9.7,9.7s4.35,9.7,9.7,9.7c5.35,0,9.7-4.35,9.7-9.7S571.38,707.33,566.03,707.33z"/>
			<path d="M593.03,509.14c-3.6,1.9-8.96,3.27-13.03,3.12c-4.17-0.16-4.16,0.12-2.94,5.12c1.22,4.99-0.82,51.1-1.1,59.38
				c-0.27,8.29-0.16,8.45,1.1,6.37c1.26-2.09,4.99-36.17,6.64-52.63s5.6-17.29,9.88-19.81
				C597.86,508.16,596.63,507.24,593.03,509.14z"/>
			<path d="M499.49,517.38c1.22-4.99,1.22-5.27-2.94-5.12c-4.07,0.15-9.43-1.21-13.03-3.12c-3.6-1.9-4.83-0.99-0.55,1.54
				c4.28,2.52,8.23,3.35,9.88,19.81s5.38,50.55,6.64,52.63c1.26,2.09,1.37,1.92,1.1-6.37C500.31,568.47,498.27,522.37,499.49,517.38
				z"/>
			<path d="M537.83,497.17c-10.97,0.09-24.8,9.39-25.66,21.1c-0.85,11.71,3.8,21.19,12.15,40.71c8.35,19.52,8.07,39.59,16.32,39.59
				c8.26,0,18.13-27.42,17.84-48.89c-0.28-21.47,4.93-14.87,4.93-29.93S548.71,497.08,537.83,497.17z"/>
			<path d="M590.18,312.14c-0.39,1.36-0.39,1.36,0.48,2.32c2.51,2.38,5.14,4.73,7.74,7.06c0.65,0.58,2.3,2.07,2.94,2.63
				c7.86,7.04,19.68,3.68,27.67-1.15c0.16-0.09,0.03-0.35-0.13-0.28c-5.7,1.92-12.19,3.41-18.07,2.15c-4.04-1.4-4.27-2.66-1.84-2.89
				c0.43,0.02,0.77,0.01,0.95-0.01c5.52,0,9.06-2.19,11.4-7.27c1.04-2.1,1.81-4.33,2.16-6.63c1.87,2.09,3.48,4.56,4.87,7.32
				c2.5,4.81,5.1,11.15,11.04,12.41c0.86,0.13,1.7,0.1,2.5-0.03c0.19-0.03,0.36-0.18,0.41-0.38c0.06-0.27-0.1-0.55-0.38-0.61
				c-2.82-0.49-4.54-2.71-5.62-5.23c-2.3-5.77-2.93-11.95-6.58-17.29c-3.52-5.73-9.73-10.06-16.4-11.42
				C601.65,290.74,593,302.24,590.18,312.14z M611.31,301.32c2.06,0.3,3.93,0.9,5.65,1.73c0.94,0.46,1.51,1.45,1.45,2.49l0,0.02
				c-0.08,3.69,0.34,8.45-1.76,11.57c-1.95,2.86-7.08,3.82-11.22,3.31c-1.57-0.19-3.01-0.91-4.17-1.99c0,0-0.01-0.01-0.01-0.01
				c-2.13-2-4.31-3.93-6.65-5.72c1.66-1.72,3.32-3.45,4.99-5.01C603.08,304.63,606.64,301.1,611.31,301.32z"/>
			<path d="M582.33,324.49c0.38,3.08,16.35,26.05,20.27,39.16c3.92,13.11,6.11,20.19,15.3,37.64c9.19,17.45,13.78,35.28,13.28,48.01
				c-0.51,12.73-9.06,34.23-11.59,37.51c-2.53,3.29-0.8,4.64,2.07,1.48c2.87-3.16,4.38-7.25,9.57-20.82
				c5.18-13.57,2.7-20.49,4.34-34.14c1.64-13.66,2.32-23.77,0.59-30.94c-1.73-7.17,0.38-7.8,2.74-6.66
				c2.36,1.14,2.36,0.55,2.61-13.15c0.25-13.7-5.4-8.94-5.99-21.75s8.51-26.98,7.76-27.95c-0.76-0.97-5.56,0.8-12.18,6.32
				c-6.62,5.52-11,10.24-18.8,10.45s-14.08-8.81-18.5-17.16c-4.43-8.35-6.7-8.94-7.92-9.36c-1.22-0.42-2.99-4.13-6.36-10.28
				s-0.38-11.76,4.17-13.24c4.55-1.48,3.96,2.95,5.27,2.87c1.31-0.08,3.62-6.58,0.25-6.74c-3.37-0.17,4.97-7.5,9.61-9.99
				c4.64-2.49,2.49-7.5,0.34-11.09c-2.15-3.58-4.55-5.99-6.91-4.47c-2.36,1.52,0.08,5.65-1.35,13.07s-7.08,7.59-13.78,8.89
				s-9.4,8.81-3.96,16.27C578.58,315.89,581.95,321.41,582.33,324.49z"/>
			<path d="M646.11,359.3c1.67-0.1,2.67-6.81,2.05-13.87c-0.63-7.06-1.46-11.37-2.21-5.52c-0.75,5.85-3.76,7.35-1.92,12.2
				S644.02,359.43,646.11,359.3z"/>
			<path d="M434.73,327.76c0.8,0.14,1.64,0.16,2.5,0.03c5.94-1.26,8.54-7.6,11.04-12.41c1.4-2.75,3.01-5.23,4.87-7.32
				c0.35,2.3,1.12,4.53,2.16,6.63c2.34,5.08,5.88,7.27,11.4,7.27c0.18,0.02,0.52,0.02,0.95,0.01c2.43,0.23,2.2,1.49-1.84,2.89
				c-5.87,1.26-12.37-0.23-18.07-2.15c-0.17-0.07-0.3,0.2-0.13,0.28c7.99,4.82,19.81,8.18,27.67,1.15c0.64-0.56,2.29-2.05,2.94-2.63
				c2.6-2.34,5.23-4.69,7.74-7.06c0.87-0.96,0.87-0.96,0.48-2.32c-2.82-9.9-11.46-21.4-23.14-19.31
				c-6.68,1.36-12.89,5.69-16.4,11.42c-3.65,5.34-4.28,11.53-6.58,17.29c-1.08,2.52-2.8,4.73-5.62,5.23
				c-0.27,0.06-0.44,0.34-0.38,0.61C434.38,327.59,434.54,327.73,434.73,327.76z M459.67,303.06c1.72-0.84,3.6-1.43,5.65-1.73
				c4.67-0.22,8.23,3.31,11.73,6.4c1.66,1.56,3.33,3.29,4.99,5.01c-2.34,1.79-4.52,3.71-6.65,5.72c0,0-0.01,0.01-0.01,0.01
				c-1.16,1.07-2.6,1.79-4.17,1.99c-4.15,0.51-9.27-0.45-11.22-3.31c-2.1-3.12-1.68-7.88-1.76-11.57l0-0.02
				C458.16,304.5,458.73,303.51,459.67,303.06z"/>
			<path d="M454.97,488.28c2.87,3.16,4.59,1.81,2.07-1.48c-2.53-3.29-11.09-24.78-11.59-37.51c-0.51-12.73,4.09-30.56,13.28-48.01
				c9.19-17.45,11.38-24.53,15.3-37.64c3.92-13.11,19.9-36.08,20.27-39.16c0.38-3.08,3.75-8.6,9.19-16.06
				c5.44-7.46,2.74-14.96-3.96-16.27c-6.7-1.31-12.35-1.48-13.78-8.89c-1.43-7.42,1.01-11.55-1.35-13.07s-4.76,0.89-6.91,4.47
				c-2.15,3.58-4.3,8.6,0.34,11.09c4.64,2.49,12.98,9.82,9.61,9.99c-3.37,0.17-1.05,6.66,0.25,6.74c1.31,0.08,0.72-4.34,5.27-2.87
				s7.54,7.08,4.17,13.24s-5.14,9.86-6.36,10.28c-1.22,0.42-3.5,1.01-7.92,9.36c-4.43,8.35-10.71,17.37-18.5,17.16
				c-7.8-0.21-12.18-4.93-18.8-10.45c-6.62-5.52-11.42-7.29-12.18-6.32s8.35,15.13,7.76,27.95c-0.59,12.81-6.24,8.05-5.99,21.75
				c0.25,13.7,0.25,14.29,2.61,13.15c2.36-1.14,4.47-0.51,2.74,6.66c-1.73,7.17-1.05,17.28,0.59,30.94
				c1.64,13.66-0.84,20.57,4.34,34.14S452.1,485.12,454.97,488.28z"/>
			<path d="M428.47,345.43c-0.63,7.06,0.38,13.77,2.05,13.87c2.09,0.13,0.25-2.34,2.09-7.19c1.84-4.85-1.17-6.35-1.92-12.2
				C429.93,334.06,429.1,338.37,428.47,345.43z"/>
		</g>
	</g>
</g>
</svg>
