<svg id="Layer_1" data-name="Layer 1" xmlns="http://www.w3.org/2000/svg" viewBox="0 0 510.05 1080"><path d="M173.82,422.5c0,20,16.72,39.25,29.08,49.27s19.48,11.53,26.9,9.06,17.85-1.51,17.16,16.88c-.14,20-1.35,35.69-19.47,45.16s-42.14,24.43-43.92,34.31-10.71,17.43-25.94,17.16S132.92,616,143.22,624.12s10.7-3,11-11.8,16.47-12.63,28.82-5.77,26.08,10.16,39.25,4.67c0,0-22.51-2.06-18.66-18.94s25.25-21.28,48.72-21.14c23.2.14,48.59,5.35,48.59,20.86s-10.85,20.59-18.39,20.59c23.05,7.41,33.62-2.88,39.52-6.86s28.28-3.3,29.65,6,1.37,18.8,9.75,13.86,4.66-30.2-9.61-32-20.45,5.22-28.69-12.35-28-23.47-45-37.33-25.53-26.36-21.54-46.81,9.88-17.15,17-16.19,22-1,33.77-16.75,22.65-30.06,23.06-46.53-18.26-62.45-78.1-62.45S173.82,402.46,173.82,422.5Zm78.56-61.4c56.59,0,73.25,43.83,73.81,55.81S310.34,436.77,303.4,439s-10.8-.08-.94-3.94,15.84-19,3.47-29.64-31.54,1-31.54,18.92,20,21.36,20,32-7.57,16.08-19.87,16.08S256,462.71,256,441.82s-2-30.59-3.57-30.59-2.5,6.62-2.74,30.59S245,472,230.09,472.4c-14.74.4-19.47-9.77-19.47-17.18s18.84-16.48,19.39-34.37-15.84-25.86-30.9-15.92S192.8,430,201.63,433s10.33,8.51-1.49,5.67-20.9-7.48-20.9-21.12S195.8,361.1,252.38,361.1Z"/><path d="M162.7,956.28,109.13,968a1.56,1.56,0,0,0-.1,3l53.41,15.34a5.38,5.38,0,0,0,6.49-3.09,30,30,0,0,0-.08-23.8A5.41,5.41,0,0,0,162.7,956.28Z"/><circle cx="218.93" cy="971.36" r="15.2"/><path d="M508.66,959.53l-70.17-7.83V930.23c0-4.17-4.77-6.71-16.88-9-.83-24.86-9.94-34.75-8.57-82.09,1.49-51.11,6.95-144.07,10.43-188.57s-3.15-62.36,7.94-84.52,34.23-49.29,34.57-63.35,3.61-35.56,17-40.92,20.23-22.48,21.09-42.07-3-13.17-4.92-.86-13.17,16.49-23.35-.43-27.73-46.25-26-58.46,8.67-20.66,6.42-22.48-6,1.39-8.78,10.27-8,6.75-10.28-1.28-6.83-13.7-18.4-36.08-24.43-35.12-28.39-42.83-2.25-18.42-2.14-38.54.86-30.2,5.68-42.62,8-27.94,8.67-58.78,3.1-48.93,6.85-63.7,5.78-30.2,8.14-24,7.07,28.91,15.63,48.83,20,48.93,20.88,79.12,4.92,50.86,1.61,53.43S438.33,232.28,440,234.74s11.57-4.07,17.35-4.18,8.46.43,10.71,12.42,8.45,41.44,16.59,59,7.5,25,7.39,40.58,8.89,24.89,9.42,33.81,3.46,8.64,3.34-.11-5.8-22.35-6-35.31-.21-29.33-9.2-56.53-12.42-54.5-18.31-56.53-9.21-3-5.36-10.92,7.5-49.36-4.17-83.41S433.83,68.78,429.23,46.3,412.21-1,409.64,1.65s1.71,21-7.39,39.51-11.46,40.47-12.31,70.67-9.21,39.93-20.13,84.47-22.7,57.93-27.41,56.32-32.87-6.64-57.93-.75-28.37,7-31.8,6.85-26.66-8.67-44.54-8.78-34.9.54-41.75,2.25-13.17-2.14-16.6-14.77S139.5,215.15,133.61,191s-18-57-19.06-77.73-.32-42.08-8.35-63.07S96.46,24,96.67,16,99.1-.7,95.59.05s-12.94,16.16-19.69,47S53.31,98.76,45.07,131.42s-11.46,62.42-8.78,72.7,5.14,18.74,1.07,21-7.82,3.86-13.81,33S8.13,308.83,8.13,328.75s-8.67,33.46-8,47.62,2.57,5.59,3.64-1.05,8.88-29.55,9.42-38.54-2.36-16,3-27.95,8-18.2,9.42-30.83S37.25,230.78,43,230.89s11.78,0,15.21,1.92,7.38-1.92,1.49-4.71-14-6.85-12.09-16.81,1-26.12,3.42-50.53,7.71-30.52,13.71-51.93,13.7-34.59,15.74-46.58,3.85-24,6.21-24,6.42,22.27,10.7,34.48,1,59.85,7.18,89.72,13.27,40.9,13.06,50.11,2.57,50.32-5.68,60.06-24.51,31.2-29.76,47.56-18.63,36.27-20.56,35S52.45,335.81,50.1,337s1,4.39,3.42,12,2.68,15.21-2.46,25.7S50,389.45,35.54,408.51,14.66,432.82,10,426.39,2.56,402.2,1.28,402.73-3,437.31,9.31,451s24.94,12.85,27.62,34.69,5.25,31.91,15.52,45.61,27.41,26.77,26.77,71.09-1.71,61.35,5.57,80.84,9.74,54.82,10.71,109.43c.78,44.51-.35,106.82-.8,128.32l-.57.1c-12.87,2.28-17.88,4.84-17.88,9.13h0V951.7L6.08,959.53a1.57,1.57,0,0,0-.1,3.1l70.27,12.11v19a3.14,3.14,0,0,0,2.81,3.12c6,.62,12,1.19,18,1.75l37.64,79.62a3.13,3.13,0,0,0,2.83,1.79H375.46a3.13,3.13,0,0,0,2.83-1.79l37.65-79.66q9.84-.81,19.7-1.71a3.14,3.14,0,0,0,2.85-3.12v-19l70.26-12.11a1.57,1.57,0,0,0-.09-3.1ZM91.39,596.12c-8.81-14.37-10.67-43.59-17.47-79.77s-6.65-60.6-7.73-69.26-3.09-5.88-3.4-.62.31,19.48-5.57,30-8.35,1.7-9.58-12.37,5.1-24.73,3.4-26.59-6.8,5.72-9.28,3.4-3.71-14.68,3.4-34,24.12-31.54,35.5-66.78,16.91-42.67,37.16-60.45,62.46-24.27,92.76-20.87,37.88,13.29,40.51,13.29,4.17-.77,24.76-10.2,58.72-2,85.78,4,51.52,34.55,57.82,60.29,12.06,35.71,26.44,56.59,17.16,38,17.31,49.31-1.08,12.37-5.26,7.73-4.94-2.78-4.63,1.7,7.42,29.69-1.55,37.73-7.73-35.87-9.28-39.12-6.33,19.79-8,41.28-5.26,39.58-8.51,65.24-6.49,35.56-14.38,53.49-18.7,24.74-26.74,26.84-24.58,20.78-32.93,33.92-11.29,58.59-10.05,102.47-4.79,75.32-16.36,111.5c-7.68,24-23.45,48.09-41.23,61.34q-30.53.56-60.6,0c-7.4-6-14.52-15.12-24.63-28.43-22.08-29.07-30.33-71-37.91-110.42s-1.08-71.55-.92-107-25.82-55.66-42.37-64S100.2,610.5,91.39,596.12ZM432.22,990.86c-122.6,11.2-240.24,11.21-349.71,0V975.82L93,977.63a4.6,4.6,0,0,0,.64,0,3.62,3.62,0,0,0,3.2-1.89,24.07,24.07,0,0,0,0-24.11,3.65,3.65,0,0,0-3.62-1.86L82.51,951V933.72c110.94,12.1,228.55,12.09,349.71,0V951l-10.65-1.19a3.65,3.65,0,0,0-3.62,1.86,24.09,24.09,0,0,0-.05,24.11,3.62,3.62,0,0,0,3.2,1.89,4.74,4.74,0,0,0,.65,0l10.47-1.81Z"/><path d="M405.61,968,352,956.28a5.42,5.42,0,0,0-6.15,3.17,30,30,0,0,0-.08,23.8h0a5.38,5.38,0,0,0,5,3.31,5.26,5.26,0,0,0,1.51-.22L405.7,971a1.56,1.56,0,0,0-.09-3Z"/><path d="M295.8,956.16a15.2,15.2,0,1,0,15.2,15.2A15.22,15.22,0,0,0,295.8,956.16Z"/><path d="M338.09,645.73c-5.64,3-14,5.13-20.41,4.88-6.53-.24-6.52.19-4.61,8s-1.29,80-1.72,93-.25,13.24,1.72,10,7.83-56.65,10.4-82.44,8.77-27.08,15.48-31S343.72,642.75,338.09,645.73Z"/><path d="M191.57,658.63c1.91-7.83,1.91-8.26-4.61-8s-14.78-1.9-20.41-4.88-7.56-1.55-.86,2.41,12.9,5.24,15.47,31,8.43,79.18,10.41,82.44,2.15,3,1.72-10S189.65,666.45,191.57,658.63Z"/><path d="M251.62,627c-17.19.14-38.85,14.7-40.19,33s5.95,33.2,19,63.77,12.64,62,25.57,62,28.39-43,27.94-76.58,7.73-23.29,7.73-46.88S268.66,626.84,251.62,627Z"/><path d="M333.63,337.15c-.61,2.14-.61,2.14.76,3.64,3.93,3.72,8.05,7.4,12.12,11.06,1,.91,3.61,3.24,4.61,4.11,12.31,11,30.83,5.76,43.34-1.79a.25.25,0,0,0-.21-.45c-8.93,3-19.1,5.35-28.3,3.37-6.33-2.19-6.69-4.17-2.88-4.52a10.77,10.77,0,0,0,1.48,0c8.65,0,14.19-3.43,17.86-11.38a35.65,35.65,0,0,0,3.38-10.39,53.55,53.55,0,0,1,7.63,11.46c3.92,7.54,8,17.47,17.29,19.45a12.46,12.46,0,0,0,3.91-.06.78.78,0,0,0,.64-.6.79.79,0,0,0-.59-.95c-4.42-.78-7.1-4.24-8.8-8.19-3.6-9-4.59-18.72-10.31-27.09a40.22,40.22,0,0,0-25.69-17.89C351.58,303.63,338,321.65,333.63,337.15Zm33.09-16.93a30,30,0,0,1,8.85,2.71,4.08,4.08,0,0,1,2.27,3.9v0c-.13,5.78.53,13.24-2.76,18.12-3.05,4.48-11.08,6-17.58,5.19a11.71,11.71,0,0,1-6.54-3.11l0,0a134.78,134.78,0,0,0-10.41-9c2.6-2.7,5.2-5.4,7.81-7.85C353.83,325.39,359.4,319.87,366.72,320.22Z"/><path d="M321.33,356.5c.6,4.82,25.62,40.8,31.76,61.33s9.57,31.63,24,59,21.59,55.26,20.79,75.2-14.19,53.61-18.15,58.76-1.26,7.26,3.23,2.31,6.87-11.36,15-32.61,4.23-32.09,6.8-53.48,3.63-37.24.93-48.46.59-12.22,4.29-10.44,3.69.86,4.09-20.59-8.45-14-9.37-34.07S418,371.15,416.8,369.63s-8.71,1.26-19.08,9.91-17.23,16-29.44,16.37-22.06-13.8-29-26.87-10.5-14-12.41-14.66-4.69-6.47-10-16.11-.59-18.42,6.54-20.73,6.2,4.62,8.25,4.49,5.68-10.3.4-10.56,7.79-11.75,15-15.65,3.89-11.75.53-17.36-7.13-9.38-10.83-7,.13,8.85-2.11,20.47-11.09,11.88-21.59,13.93-14.73,13.79-6.21,25.48S320.74,351.68,321.33,356.5Z"/><path d="M421.23,411c2.62-.16,4.19-10.67,3.21-21.73s-2.29-17.81-3.47-8.64-5.89,11.52-3,19.11S418,411.23,421.23,411Z"/><path d="M90.14,361.63a12.47,12.47,0,0,0,3.91.06c9.31-2,13.37-11.91,17.3-19.45A53.18,53.18,0,0,1,119,330.78a35.35,35.35,0,0,0,3.38,10.39c3.67,7.95,9.21,11.39,17.85,11.38a11,11,0,0,0,1.49,0c3.81.35,3.45,2.33-2.88,4.52-9.2,2-19.37-.36-28.3-3.37a.25.25,0,0,0-.21.45c12.51,7.55,31,12.82,43.34,1.79,1-.87,3.58-3.2,4.61-4.11,4.07-3.66,8.19-7.34,12.12-11.06,1.37-1.5,1.37-1.5.76-3.64-4.41-15.5-18-33.52-36.25-30.24A40.27,40.27,0,0,0,109.2,324.8c-5.71,8.37-6.7,18.06-10.3,27.09-1.7,3.95-4.39,7.41-8.8,8.19a.79.79,0,0,0,0,1.55Zm39.06-38.7a30,30,0,0,1,8.85-2.71c7.32-.35,12.88,5.17,18.38,10,2.6,2.45,5.21,5.15,7.81,7.85a134.78,134.78,0,0,0-10.41,9l0,0a11.71,11.71,0,0,1-6.54,3.11c-6.5.8-14.53-.71-17.59-5.19-3.28-4.88-2.62-12.34-2.76-18.12v0A4.11,4.11,0,0,1,129.2,322.93Z"/><path d="M121.83,613.06c4.49,5,7.2,2.84,3.24-2.31S107.71,571.93,106.91,552s6.41-47.87,20.8-75.2,17.83-38.43,24-59,31.16-56.51,31.75-61.33,5.88-13.47,14.4-25.16,4.29-23.44-6.21-25.48-19.34-2.31-21.59-13.93,1.59-18.1-2.11-20.47-7.46,1.38-10.83,7-6.73,13.47.53,17.36,20.33,15.38,15,15.65-1.65,10.43.4,10.56,1.12-6.8,8.25-4.49,11.82,11.09,6.54,20.73-8.06,15.45-10,16.11S172.41,356,165.48,369s-16.77,27.2-29,26.87-19.08-7.72-29.44-16.37S89.15,368.12,88,369.63s13.08,23.71,12.15,43.78S90.34,426,90.74,447.48s.39,22.38,4.09,20.59,7-.79,4.29,10.44-1.65,27.07.93,48.46-1.32,32.22,6.8,53.48S117.34,608.11,121.83,613.06Z"/><path d="M80.33,389.3c-1,11.06.59,21.57,3.21,21.73,3.27.2.39-3.67,3.27-11.26s-1.83-9.95-3-19.11S81.31,378.24,80.33,389.3Z"/></svg>