<svg id="Layer_1" data-name="Layer 1" xmlns="http://www.w3.org/2000/svg" viewBox="0 0 579.86 1080"><defs><style>.cls-1{fill:#ec008c;}.cls-2{fill:#fff200;}.cls-3{fill:#00aeef;}</style></defs><path class="cls-1" d="M159.2,961.33c23.34,0,23,16.93,20.44,25.33-11.66,38.14-69,43.69-74.49,61.62-3.66,12-4,29.32-4.24,30.17-.53,1.71-3.67,1.28-4.67,1.28H77.31c-3.55,0-8.65,2.71,7.67-50.66,21.49-70.3,28.11-67.74,30.53-67.74Zm-4,29.88c3-9.82-4.54-13.09-13.08-13.09-10.25,0-19.12,1.57-29,34.3-1,3.41-1.71,6.55,2.41,6.55C122.94,1019,152.06,1001.46,155.19,991.21Z"/><path class="cls-1" d="M239.75,961.33c26.48,0,28.73,14.51,25,26.61-7,22.77-30.44,29.75-31.66,33.73s18.7,22.63,8.43,56.21c-.48,1.57-1.13,1.85-4.12,1.85H221.34c-2.56,0-7.1.43-6.4-1.85,4.91-16.08,2.36-45-5.9-45-4.27,0-16.44,5.84-18.88,13.81-3.3,10.81-4,30.31-4.3,31.3-.74,2.42-4.08,1.71-5.51,1.71H163.84c-3.55,0-8.65,2.71,7.67-50.66,21.49-70.3,28.11-67.74,30.53-67.74Zm1.23,29c2.74-9-4.65-12.24-12.34-12.24-12.95,0-20.08,4.7-27.46,29.32-.92,3-2.52,8.68,1.75,8.68C207.77,1016.12,237,1003.45,241,990.36Z"/><path class="cls-2" d="M257.77,1079.73c-3.55,0-8.65,2.71,7.67-50.66,21.49-70.3,28.11-67.74,30.53-67.74h15.37c1.85,0,5.54-.43,4.71,2.27-.43,1.43-15.24,25.19-23.64,52.66-11.14,36.43-11.2,59.92-11.81,61.91-.44,1.42-1.33,1.56-2.61,1.56H257.77Z"/><path class="cls-3" d="M356.4,1079.73c-9.82,0,1.71-8.82-6.75-53.79-.67-3.84-5.89-27.75-10.44-27.75-3.56,0-7.31,15.51-8.18,18.36-12.27,40.13-10.87,54.64-13.09,61.9-.56,1.85-3.09,1.28-4.38,1.28H300.33c-3.56,0-8.66,2.71,7.66-50.66,21.49-70.3,28.11-67.74,30.53-67.74h11.25c5.4,0,12.74,11.38,24.3,60.62.21.72.35,2.57,1.64,2.57s3-6.12,3.61-8.12c8.14-26.61,8.1-50.23,9.11-53.51.61-2,3.61-1.56,6.31-1.56h10.82c3.13,0,10.6-2.56-10.89,67.74-16.32,53.37-19.76,50.66-23.32,50.66Z"/><path class="cls-3" d="M421.87,1079.73c-2.7,0-10.71,5.7,1.91-35.58,9.7-31.73,22.15-51.94,23.76-57.21,1.3-4.27,2.8-6.83-.76-6.83-10.11,0-32.9,16.37-35.32,16.37-1.28,0-2.17.57-.95-3.42,1.35-4.41,10.59-22.06,13.94-26,2.25-2.7,23-7.83,42.24-7.83,22.92,0,41.4,6.12,39.36,12.81-1.92,6.26-13,19.78-14.59,19.78-2.42,0-4.64-11.81-14.89-11.81-8.68,0-18.42,27.18-22.42,40.28-11.18,36.57-8.84,54.5-9.62,57.06-1,3.13-5.86,2.42-7.71,2.42Z"/><path d="M0,863.49H26c19.63,0,35.8,15.43,35.8,35.24S45.52,934,26,934H0Zm18.32,55h4.11c10.94,0,20.29-6,20.29-19.73,0-12.62-8.32-19.72-20.1-19.72h-4.3Z"/><path d="M146.58,897.43c0,22.8-16.36,38.88-39,38.88s-39-16.08-39-38.88c0-21.32,18.69-36.27,39-36.27S146.58,876.11,146.58,897.43Zm-58.89.09c0,12.15,9,21,19.91,21s19.91-8.88,19.91-21c0-9.72-9-18.6-19.91-18.6S87.69,887.8,87.69,897.52Z"/><path d="M157,934V863.49h26.17c12.53,0,20.94,4.86,20.94,18.32,0,6.36-2.06,11.5-7.76,14.4v.19c10.1,1.31,14.4,8.13,14.4,17.94,0,14.77-12.62,19.64-25.52,19.64Zm18.32-42.82h2.05c4.87,0,9.91-.84,9.91-6.82,0-6.45-5.7-6.82-10.65-6.82h-1.31Zm0,28.79h2.33c5.43,0,14.59.28,14.59-7.47,0-8.51-9.07-7.67-15-7.67h-1.87Z"/><path d="M240.43,879v11.78h20.66v15.52H240.43v12.15h21.78V934h-40.1V863.49h40.1V879Z"/><path d="M334,934H311.2l-17.3-27.11h-.18V934H275.4V863.49h27.38c13.93,0,24.5,6.64,24.5,21.69,0,9.72-5.43,18.14-15.43,19.91Zm-40.29-38.89h1.77c6,0,12.72-1.12,12.72-8.79s-6.73-8.78-12.72-8.78h-1.77Z"/><path d="M348.59,863.49h18l14.3,37.67,15.15-37.67h18.23L425,934H406.64l-5.14-40.57h-.19L384.39,934H377.1l-16.17-40.57h-.19L354.85,934H336.63Z"/><path d="M452.54,921.73,447.68,934H428.24l27.11-70.49h20L501.9,934H482.36l-4.58-12.25Zm12.81-36.46h-.19l-7.57,22.44h15.24Z"/><path d="M509.47,863.49h18.32l33.56,43.1h.19v-43.1h18.32V934H561.54L528,890.79h-.19V934H509.47Z"/><path d="M226.75,328.71c0,15.59,13,30.55,22.62,38.34s15.17,9,20.93,7.05,13.89-1.18,13.36,13.13c-.11,15.59-1.06,27.77-15.15,35.13s-32.79,19-34.17,26.7-8.33,13.56-20.19,13.35-19.22,16.87-11.21,23.17,8.33-2.35,8.54-9.18,12.82-9.83,22.43-4.49,20.29,7.9,30.54,3.63c0,0-17.51-1.6-14.52-14.73s19.64-16.55,37.9-16.45c18.05.11,37.81,4.17,37.81,16.23s-8.44,16-14.31,16c17.94,5.77,26.16-2.24,30.75-5.34s22-2.56,23.07,4.7,1.07,14.63,7.58,10.79,3.63-23.5-7.48-24.89-15.91,4.06-22.31-9.61-21.79-18.26-35-29-19.86-20.5-16.77-36.42,7.69-13.34,13.25-12.6,17.08-.74,26.27-13,17.62-23.39,17.94-36.2-14.21-48.59-60.77-48.59S226.75,313.12,226.75,328.71Zm61.13-47.77c44,0,57,34.1,57.42,43.42S333,339.82,327.57,341.54s-8.4-.06-.73-3.07,12.32-14.78,2.69-23.06-24.53.8-24.53,14.72,15.58,16.62,15.58,24.9-5.89,12.51-15.46,12.51-14.47-7.54-14.47-23.79-1.6-23.8-2.77-23.8-1.95,5.15-2.14,23.8-3.62,23.48-15.21,23.79-15.15-7.6-15.15-13.37,14.66-12.82,15.09-26.74-12.33-20.12-24-12.39-4.91,19.51,2,21.84,8,6.62-1.16,4.41S231,335.47,231,324.86,243.85,280.94,287.88,280.94Z"/><path d="M218.1,744l-41.68,9.09a1.22,1.22,0,0,0-.08,2.36L217.9,767.4a4.37,4.37,0,0,0,1.18.17A4.18,4.18,0,0,0,223,765a23.31,23.31,0,0,0-.07-18.51A4.21,4.21,0,0,0,218.1,744Z"/><circle cx="261.85" cy="755.74" r="11.83"/><path d="M487.26,746.54l-54.59-6.09V723.74c0-3.24-3.71-5.22-13.13-7-.65-19.34-7.74-27-6.67-63.87C414,613.14,418.28,540.82,421,506.2s-2.44-48.52,6.18-65.76,26.64-38.35,26.9-49.29,2.81-27.67,13.22-31.83,15.75-17.5,16.41-32.74-2.33-10.25-3.83-.67-10.24,12.83-18.16-.33-21.57-36-20.24-45.48,6.75-16.08,5-17.5-4.67,1.09-6.83,8-6.25,5.25-8-1-5.32-10.66-14.32-28.07-19-27.32-22.08-33.32-1.75-14.33-1.67-30,.67-23.49,4.42-33.16,6.24-21.74,6.74-45.73,2.42-38.07,5.34-49.56,4.49-23.49,6.33-18.66,5.49,22.49,12.16,38,15.58,38.07,16.24,61.56,3.83,39.57,1.25,41.57-13.49,8.5-12.16,10.41,9-3.16,13.49-3.24,6.59.33,8.34,9.66,6.58,32.24,12.91,45.9,5.83,19.49,5.74,31.57,6.92,19.37,7.34,26.3,2.68,6.73,2.59-.08-4.51-17.39-4.68-27.47-.16-22.83-7.16-44-9.66-42.4-14.25-44S451,175,454,168.81s5.83-38.41-3.25-64.9S429.05,53.52,425.47,36,412.22-.8,410.22,1.28s1.33,16.33-5.75,30.74-8.91,31.49-9.58,55-7.16,31.07-15.66,65.73-17.66,45.06-21.32,43.82-25.58-5.17-45.07-.59-22.07,5.42-24.74,5.33-20.74-6.74-34.65-6.83-27.16.42-32.49,1.75-10.25-1.66-12.91-11.49-8-17.33-12.58-36.16-14-44.31-14.83-60.47-.25-32.74-6.5-49.07-7.58-20.32-7.41-26.57,1.89-13-.85-12.41S155.82,12.61,150.57,36.6s-17.58,40.24-24,65.65-8.92,48.56-6.83,56.56,4,14.58.83,16.33-6.08,3-10.75,25.65-12,39.49-12,55-6.75,26-6.25,37,2,4.35,2.83-.81,6.92-23,7.33-30-1.83-12.41,2.34-21.74,6.24-14.16,7.33-24,9.08-36.74,13.58-36.65,9.16,0,11.82,1.49,5.75-1.49,1.17-3.66-10.91-5.33-9.41-13.08.75-20.32,2.66-39.32,6-23.74,10.67-40.4,10.66-26.91,12.24-36.24,3-18.66,4.83-18.66,5,17.33,8.33,26.83.75,46.56,5.58,69.8,10.33,31.83,10.17,39,2,39.15-4.42,46.73-19.07,24.28-23.16,37-14.49,28.22-16,27.27-7.16-15.12-9-14.2.75,3.41,2.67,9.33,2.08,11.83-1.92,20-.83,11.5-12.08,26.32-16.24,18.91-19.91,13.91-5.74-18.82-6.74-18.4-3.33,26.9,6.24,37.56,19.41,10,21.5,27,4.08,24.83,12.08,35.49,21.32,20.83,20.82,55.31-1.33,47.74,4.33,62.9,7.58,42.65,8.33,85.13c.61,34.64-.27,83.11-.62,99.84l-.44.08c-10,1.77-13.91,3.77-13.91,7.1h0v16.71l-54.6,6.09a1.22,1.22,0,0,0-.07,2.41l54.67,9.42v14.77a2.43,2.43,0,0,0,2.18,2.42c4.66.49,9.35.93,14,1.37l29.28,61.94a2.44,2.44,0,0,0,2.2,1.4H383.63a2.45,2.45,0,0,0,2.21-1.4l29.29-62c5.1-.42,10.2-.86,15.33-1.33a2.44,2.44,0,0,0,2.21-2.43V758.37L487.34,749a1.22,1.22,0,0,0-.08-2.41ZM162.62,463.8c-6.86-11.19-8.3-33.92-13.59-62.07s-5.18-47.15-6-53.88-2.4-4.57-2.64-.48.24,15.15-4.33,23.33-6.5,1.32-7.46-9.62,4-19.25,2.64-20.69-5.29,4.45-7.21,2.65-2.89-11.43,2.64-26.47,18.77-24.53,27.62-52,13.16-33.2,28.92-47,48.59-18.88,72.17-16.24,29.46,10.35,31.51,10.35,3.25-.6,19.26-7.94,45.69-1.57,66.74,3.13,40.09,26.87,45,46.91,9.38,27.78,20.57,44,13.35,29.59,13.47,38.37-.84,9.62-4.09,6S444,340,444.2,343.52s5.77,23.09-1.2,29.35-6-27.91-7.22-30.44-4.93,15.4-6.26,32.12-4.09,30.79-6.61,50.76-5.05,27.66-11.19,41.62-14.55,19.24-20.81,20.88S371.79,504,365.29,514.2s-8.78,45.58-7.81,79.72-3.73,58.6-12.73,86.75c-6,18.69-18.25,37.42-32.08,47.72q-23.75.43-47.15,0c-5.76-4.69-11.29-11.76-19.16-22.12-17.18-22.61-23.6-55.21-29.49-85.91s-.85-55.66-.73-83.21-20.08-43.3-32.95-49.8S169.47,475,162.62,463.8ZM427.79,770.92c-95.38,8.71-186.91,8.72-272.08,0V759.21l8.15,1.41a2.89,2.89,0,0,0,.5,0,2.8,2.8,0,0,0,2.49-1.47,18.74,18.74,0,0,0,0-18.76A2.87,2.87,0,0,0,164,739l-8.29.93V726.46c86.31,9.41,177.82,9.41,272.08,0v13.47l-8.28-.93a2.88,2.88,0,0,0-2.82,1.45,18.72,18.72,0,0,0,0,18.76,2.8,2.8,0,0,0,2.49,1.47,2.7,2.7,0,0,0,.49,0l8.15-1.41Z"/><path d="M407.09,753.1,365.41,744a4.22,4.22,0,0,0-4.79,2.47,23.31,23.31,0,0,0-.06,18.51h0a4.16,4.16,0,0,0,3.87,2.58,4.43,4.43,0,0,0,1.18-.17l41.55-11.94a1.22,1.22,0,0,0-.07-2.36Z"/><path d="M321.65,743.92a11.82,11.82,0,1,0,11.83,11.82A11.83,11.83,0,0,0,321.65,743.92Z"/><path d="M354.56,502.4a35.16,35.16,0,0,1-15.88,3.79c-5.08-.19-5.07.15-3.59,6.24s-1,62.27-1.33,72.37-.21,10.3,1.33,7.75,6.09-44.07,8.1-64.14,6.82-21.06,12-24.14S358.94,500.08,354.56,502.4Z"/><path d="M240.56,512.43c1.49-6.09,1.49-6.43-3.59-6.24a35.09,35.09,0,0,1-15.87-3.79c-4.39-2.32-5.89-1.21-.67,1.87s10,4.08,12,24.14,6.55,61.6,8.09,64.14,1.67,2.35,1.34-7.75S239.07,518.51,240.56,512.43Z"/><path d="M287.28,487.81c-13.37.11-30.22,11.44-31.26,25.71s4.62,25.83,14.8,49.61,9.83,48.25,19.89,48.25S312.8,578,312.45,551.81s6-18.13,6-36.48S300.54,487.7,287.28,487.81Z"/><path d="M351.09,262.31c-.48,1.67-.48,1.67.59,2.83,3.06,2.9,6.26,5.76,9.43,8.61.8.7,2.81,2.52,3.58,3.2,9.58,8.58,24,4.48,33.73-1.4.2-.1,0-.43-.17-.34-6.94,2.34-14.86,4.15-22,2.62-4.92-1.71-5.2-3.25-2.24-3.53a8.22,8.22,0,0,0,1.16,0c6.72,0,11-2.66,13.89-8.85a27.53,27.53,0,0,0,2.63-8.08,41.91,41.91,0,0,1,5.94,8.91c3.05,5.87,6.21,13.6,13.45,15.13a9.65,9.65,0,0,0,3,0,.62.62,0,0,0,0-1.21c-3.44-.6-5.53-3.3-6.85-6.37-2.8-7-3.57-14.56-8-21.08a31.28,31.28,0,0,0-20-13.91C365.06,236.23,354.52,250.25,351.09,262.31Zm25.74-13.17a23.47,23.47,0,0,1,6.89,2.11,3.18,3.18,0,0,1,1.77,3v0c-.11,4.5.41,10.3-2.15,14.09-2.38,3.49-8.63,4.66-13.68,4a9.15,9.15,0,0,1-5.09-2.42h0a105.91,105.91,0,0,0-8.11-7c2-2.1,4.06-4.2,6.08-6.1C366.81,253.16,371.14,248.87,376.83,249.14Z"/><path d="M341.52,277.36c.46,3.75,19.93,31.75,24.71,47.72s7.45,24.61,18.65,45.87,16.79,43,16.18,58.51S390,471.17,386.93,475.18s-1,5.65,2.52,1.8,5.34-8.84,11.66-25.38,3.29-25,5.29-41.61,2.82-29,.72-37.7.46-9.5,3.34-8.12,2.87.67,3.18-16-6.57-10.89-7.29-26.51,10.37-32.87,9.45-34.06-6.78,1-14.85,7.71S387.55,307.77,378,308s-17.15-10.74-22.55-20.91-8.16-10.89-9.65-11.4-3.65-5-7.76-12.53-.46-14.34,5.08-16.13,4.83,3.59,6.43,3.49,4.41-8,.3-8.22,6.07-9.14,11.72-12.17,3-9.15.41-13.51-5.55-7.3-8.43-5.45.11,6.88-1.64,15.93-8.63,9.24-16.8,10.83-11.45,10.74-4.83,19.83S341.06,273.61,341.52,277.36Z"/><path d="M419.24,319.79c2-.12,3.26-8.3,2.5-16.9S420,289,419,296.16s-4.58,9-2.34,14.87S416.7,319.94,419.24,319.79Z"/><path d="M161.65,281.36a9.66,9.66,0,0,0,3,0c7.24-1.53,10.4-9.26,13.46-15.13a41.5,41.5,0,0,1,5.93-8.91,28.13,28.13,0,0,0,2.63,8.08c2.86,6.19,7.17,8.86,13.9,8.85a8,8,0,0,0,1.15,0c3,.28,2.68,1.82-2.24,3.53-7.16,1.53-15.07-.28-22-2.62-.2-.09-.36.24-.16.34,9.73,5.88,24.14,10,33.72,1.4.78-.68,2.79-2.5,3.58-3.2,3.17-2.85,6.38-5.71,9.44-8.61,1.06-1.16,1.06-1.16.59-2.83-3.44-12.06-14-26.08-28.2-23.52a31.28,31.28,0,0,0-20,13.91c-4.45,6.52-5.22,14.05-8,21.08-1.32,3.07-3.41,5.77-6.85,6.37a.62.62,0,0,0,0,1.21ZM192,251.25a23.56,23.56,0,0,1,6.89-2.11c5.7-.27,10,4,14.3,7.8,2,1.9,4.06,4,6.08,6.1a103.88,103.88,0,0,0-8.1,7h0a9.09,9.09,0,0,1-5.09,2.42c-5.05.62-11.3-.55-13.68-4-2.55-3.79-2-9.59-2.14-14.09v0A3.2,3.2,0,0,1,192,251.25Z"/><path d="M186.31,477c3.49,3.85,5.59,2.21,2.51-1.8S175.31,445,174.7,429.46s5-37.24,16.18-58.51,13.87-29.89,18.64-45.87,24.25-44,24.71-47.72,4.57-10.48,11.2-19.57,3.34-18.23-4.83-19.83-15-1.79-16.8-10.83,1.24-14.08-1.64-15.93-5.8,1.08-8.42,5.45-5.24,10.48.41,13.51,15.82,12,11.71,12.17-1.29,8.12.31,8.22.87-5.29,6.42-3.49,9.19,8.63,5.08,16.13-6.26,12-7.75,12.53-4.27,1.23-9.66,11.4-13,21.17-22.55,20.91-14.85-6-22.91-12.74-13.92-8.89-14.85-7.71,10.17,18.45,9.46,34.06-7.61,9.81-7.3,26.51.31,17.41,3.19,16,5.44-.61,3.33,8.12-1.28,21.06.72,37.7-1,25.07,5.29,41.61S182.81,473.12,186.31,477Z"/><path d="M154,302.89c-.77,8.6.45,16.78,2.49,16.9,2.54.15.3-2.85,2.54-8.76s-1.42-7.74-2.34-14.87S154.78,294.28,154,302.89Z"/></svg>